Coordinates
version=1
nRows=19
nColumns=34
inDegrees=yes

Units are S.I. units (second, meters, Newtons, ...)
If the header above contains a line with 'inDegrees', this indicates whether rotational values are in degrees (yes) or radians (no).

endheader
time	pelvis_tilt	pelvis_list	pelvis_rotation	pelvis_tx	pelvis_ty	pelvis_tz	hip_flexion_r	hip_adduction_r	hip_rotation_r	knee_angle_r	ankle_angle_r	subtalar_angle_r	mtp_angle_r	hip_flexion_l	hip_adduction_l	hip_rotation_l	knee_angle_l	ankle_angle_l	subtalar_angle_l	mtp_angle_l	lumbar_extension	lumbar_bending	lumbar_rotation	arm_flex_r	arm_add_r	arm_rot_r	elbow_flex_r	pro_sup_r	arm_flex_l	arm_add_l	arm_rot_l	elbow_flex_l	pro_sup_l
      3.35000000	     -1.11685819	      0.69694193	     -5.47628731	      1.76910733	      0.88135236	      0.01540916	      0.74874441	     -4.69420308	     -0.75665462	      2.36767204	      4.29234645	    -18.99455140	      0.00000000	      0.36331873	     -2.91747676	      4.59255479	      1.60022898	      2.54943730	    -10.92323808	      0.00000000	     -9.36648759	      1.73929609	     -0.08994047	      7.85877010	    -10.38409763	     36.48966617	     84.59591208	     88.56910420	      9.40075947	     -7.87956709	     35.27853390	     68.33641261	     84.36193787
      3.36666670	     -1.23315498	      0.69714991	     -5.50124570	      1.76911294	      0.88082840	      0.01471192	      0.84614213	     -4.70123818	     -0.79755097	      2.33720443	      4.34422758	    -18.99936962	      0.00000000	      0.45861114	     -2.89806706	      4.59297556	      1.56818094	      2.56879334	    -10.97007201	      0.00000000	     -9.52486665	      1.74363055	     -0.08843167	      7.84469618	    -10.40043876	     36.49755848	     84.59099763	     88.56274713	      9.39457298	     -7.89357214	     35.26115485	     68.32501125	     84.35920223
      3.38333330	     -1.38223448	      0.70052075	     -5.48898391	      1.76898013	      0.88025538	      0.01382279	      0.98795805	     -4.72324416	     -0.85496960	      2.31700611	      4.40714270	    -19.00190552	      0.00000000	      0.61188298	     -2.86735758	      4.58733298	      1.53393736	      2.59607339	    -11.03297786	      0.00000000	     -9.70737408	      1.76430341	     -0.04143473	      7.88473248	    -10.34748300	     36.52439253	     84.59669224	     88.55547186	      9.47775477	     -7.87548951	     35.22030644	     68.34867139	     84.35539355
      3.40000000	     -1.54799145	      0.69886769	     -5.54501418	      1.76891921	      0.88023475	      0.01300214	      1.18951444	     -4.75283213	     -0.94726523	      2.31713262	      4.47450720	    -19.00605550	      0.00000000	      0.79411193	     -2.83275601	      4.60835500	      1.54077487	      2.62367643	    -11.09499250	      0.00000000	     -9.91334611	      1.79480437	      0.02889369	      7.92474880	    -10.25945053	     36.58533838	     84.59457294	     88.54816500	      9.63814339	     -7.85165157	     35.15535261	     68.40172100	     84.35082349
      3.41666670	     -1.70792474	      0.69087107	     -5.47359541	      1.76929000	      0.88035136	      0.01238512	      1.38086278	     -4.78146071	     -1.02465519	      2.38993024	      4.52409844	    -18.98879690	      0.00000000	      1.00248504	     -2.80385844	      4.60441514	      1.55070670	      2.66375722	    -11.17622621	      0.00000000	    -10.11993114	      1.81658044	      0.17382353	      7.93600276	    -10.13907659	     36.69623789	     84.57987998	     88.54279117	      9.79306537	     -7.87108429	     35.07244351	     68.45923788	     84.34576665
      3.43333330	     -1.94641804	      0.67977962	     -5.58150802	      1.76973990	      0.87931305	      0.01239276	      1.90774610	     -4.80350259	     -1.26532232	      2.82389517	      4.69502737	    -18.86276428	      0.00000000	      1.44192843	     -2.78921312	      4.64761388	      1.92589359	      2.74530029	    -11.44002235	      0.00000000	    -10.20126716	      1.73146366	      0.47129054	      7.87310850	     -9.96328811	     37.11741359	     84.55244857	     88.52171771	     10.13762031	     -7.83560201	     34.85629833	     68.75781339	     84.33661082
      3.45000000	     -2.13163437	      0.68284042	     -5.61424433	      1.77059670	      0.87824754	      0.01211372	      2.04712478	     -4.84103559	     -1.32426406	      2.72212325	      4.76124254	    -18.86798938	      0.00000000	      1.56982768	     -2.75282997	      4.64363384	      1.83618602	      2.78967494	    -11.48930563	      0.00000000	    -10.41293502	      1.79074316	      0.55351546	      7.80830309	     -9.91549993	     37.21724006	     84.52604038	     88.51917900	     10.12580801	     -7.91990448	     34.81904246	     68.75099429	     84.33453401
      3.46666670	     -2.72434712	      0.71677158	     -5.75849228	      1.77090560	      0.87606101	      0.01152726	      2.95450018	     -4.87645818	     -1.48043854	      3.17226366	      5.18956535	    -18.44227670	      0.00000000	      2.34133327	     -2.72701892	      4.64385879	      2.15354805	      3.00481265	    -11.91747799	      0.00000000	    -10.13517070	      1.73381493	      0.93199911	      7.71353173	     -9.99191121	     38.21959998	     84.59589367	     88.47214935	     10.06530510	     -7.92540430	     34.45558049	     69.34760546	     84.32310557
      3.48333330	     -2.88331921	      0.70229297	     -5.84914907	      1.77120404	      0.87478608	      0.01064523	      3.06326683	     -4.88708792	     -1.54719131	      3.03772770	      5.24471946	    -18.45463093	      0.00000000	      2.41725511	     -2.71901782	      4.66838146	      2.06951702	      3.02977533	    -11.92462245	      0.00000000	    -10.27325947	      1.79923332	      0.99152736	      7.70536789	     -9.86242312	     38.30941269	     84.61079351	     88.46867220	     10.10121880	     -8.01844136	     34.39284590	     69.33839377	     84.31976057
      3.50000000	     -3.09014550	      0.68932168	     -5.85935872	      1.77127102	      0.87426068	      0.00992911	      3.23172897	     -4.89378240	     -1.57383177	      2.93246838	      5.28907864	    -18.42767520	      0.00000000	      2.56546679	     -2.71177687	      4.67906641	      1.96650158	      3.10427980	    -11.95892408	      0.00000000	    -10.44944583	      1.85920601	      1.11188287	      7.70011619	     -9.66591490	     38.46106242	     84.63933012	     88.46652346	     10.17885690	     -8.07574909	     34.30126640	     69.37295353	     84.31432063
      3.51666670	     -3.75127317	      0.73924806	     -6.10002841	      1.77113505	      0.87306875	      0.00957119	      4.27800126	     -4.93985426	     -1.57536559	      3.38713552	      5.60665144	    -17.92614239	      0.00000000	      3.49842506	     -2.67317582	      4.57279277	      2.47324478	      3.51600926	    -12.22231604	      0.00000000	    -10.15812583	      1.82363832	      1.36166292	      7.82387745	     -9.75546418	     39.46341615	     84.82259803	     88.41118002	      9.97514020	     -7.99420020	     33.69437908	     70.14494581	     84.28219043
      3.53333330	     -3.92895268	      0.74828832	     -6.18874040	      1.77186102	      0.87231977	      0.00902476	      4.41808202	     -4.98423551	     -1.62088972	      3.25724560	      5.65300963	    -17.92446420	      0.00000000	      3.59635427	     -2.62653412	      4.59783232	      2.38720564	      3.53555993	    -12.21474770	      0.00000000	    -10.31587312	      1.89582449	      1.36771452	      7.81644222	     -9.56771663	     39.56966804	     84.84148513	     88.40770179	     10.02835063	     -7.96580091	     33.65345180	     70.18324928	     84.28022072
      3.55000000	     -4.16079828	      0.77796014	     -6.19513840	      1.77260833	      0.87089814	      0.00831976	      4.68597185	     -5.05005533	     -1.62649142	      3.27190539	      5.65197205	    -17.84350701	      0.00000000	      3.83274083	     -2.56216821	      4.60095144	      2.38510419	      3.61458161	    -12.24750042	      0.00000000	    -10.56329121	      1.94822563	      1.44407020	      7.79612286	     -9.21158516	     39.79410091	     84.87722001	     88.40541939	     10.13199896	     -7.85959184	     33.58629642	     70.31007948	     84.27656432
      3.56666670	     -5.22227247	      0.94471643	     -6.36861883	      1.77277593	      0.86756014	      0.00791696	      6.43757913	     -5.19912334	     -1.83552127	      4.31009252	      6.38761762	    -17.16327880	      0.00000000	      5.43734600	     -2.44778025	      4.43450813	      3.29866591	      4.17844848	    -12.48464888	      0.00000000	     -9.75747906	      1.87533729	      1.25016305	      8.08400587	     -9.20847531	     41.00831856	     84.97647663	     88.30106584	      9.53695561	     -7.87359954	     32.87360109	     71.71921180	     84.25238318
      3.58333330	     -5.36332951	      0.97722232	     -6.49162543	      1.77202969	      0.86624973	      0.00824377	      6.96623080	     -5.26839208	     -2.08156910	      4.91170613	      6.24043736	    -16.98072404	      0.00000000	      5.82929304	     -2.40726169	      4.28353414	      3.77797111	      4.26701187	    -12.59938522	      0.00000000	    -10.17591264	      1.88246132	      1.21627637	      8.48086576	     -8.89174947	     41.13864167	     84.92538596	     88.26405505	      9.74333825	     -7.78691613	     32.63733327	     71.88969547	     84.24356441
      3.60000000	     -6.37232870	      1.11479994	     -6.55093624	      1.77096905	      0.86404546	      0.00927436	      8.77459177	     -5.37886382	     -2.68352140	      6.14324881	      7.08260000	    -15.93330405	      0.00000000	      7.47964401	     -2.38218801	      3.95032706	      4.78948164	      4.61295513	    -12.71702294	      0.00000000	     -9.53861682	      1.91591355	      0.56816650	      9.16113997	     -8.77679756	     42.01395897	     84.61865691	     88.02354159	      9.03434686	     -7.89387923	     31.57535886	     73.04018350	     84.25015235
      3.61666670	     -6.65502194	      1.20021447	     -6.63722475	      1.76923333	      0.86294021	      0.01082175	      9.87817027	     -5.47161727	     -2.82582156	      7.48319497	      7.65764040	    -15.72653629	      0.00000000	      8.46334952	     -2.35940509	      3.70159639	      6.02920725	      5.04818303	    -12.94876925	      0.00000000	     -9.88640748	      1.85041358	      0.39956517	      9.78699111	     -8.55286410	     42.14848767	     84.58453456	     87.90093740	      9.13768524	     -7.79870350	     31.21097275	     73.57933036	     84.28217896
      3.63333330	     -7.41992341	      1.27951545	     -6.70362442	      1.76659985	      0.86209521	      0.01219511	     11.77883612	     -5.51510871	     -3.32008111	      9.23068158	      8.23694015	    -15.09968677	      0.00000000	     10.22059223	     -2.48918016	      3.08980293	      7.64515144	      5.27188159	    -12.85336330	      0.00000000	     -9.78502045	      1.79676063	      0.09050455	     10.47183773	     -8.21396675	     42.21172212	     84.70439913	     87.74949181	      9.19915267	     -7.85275004	     30.84181192	     74.42335971	     84.35191469
      3.65000000	     -8.06083091	      1.38315517	     -6.72258379	      1.76331110	      0.86165514	      0.01246609	     13.75576228	     -5.65120039	     -3.80507650	     11.29921201	      8.97165009	    -14.49281297	      0.00000000	     12.14828682	     -2.61473760	      2.24033063	      9.76158533	      5.62813077	    -12.65574103	      0.00000000	     -9.90899639	      1.74498343	     -0.24442486	     11.18408457	     -7.91622511	     42.13407245	     84.77975630	     87.62465788	      9.49718444	     -7.89140647	     30.54024075	     75.12141850	     84.43784679
